<svg width="52" height="52" viewBox="0 0 52 52" fill="none" xmlns="http://www.w3.org/2000/svg">
<path d="M44.2812 24.0703H14.5691L32.3527 8.63281C32.6371 8.38398 32.4644 7.92188 32.0887 7.92188H27.5945C27.3965 7.92188 27.2086 7.99297 27.0613 8.11992L7.87109 24.7711C7.69533 24.9234 7.55437 25.1118 7.45776 25.3234C7.36115 25.535 7.31116 25.7649 7.31116 25.9975C7.31116 26.2301 7.36115 26.4599 7.45776 26.6715C7.55437 26.8831 7.69533 27.0715 7.87109 27.2238L27.173 43.9766C27.2492 44.0426 27.3406 44.0781 27.4371 44.0781H32.0836C32.4594 44.0781 32.632 43.6109 32.3476 43.3672L14.5691 27.9297H44.2812C44.5047 27.9297 44.6875 27.7469 44.6875 27.5234V24.4766C44.6875 24.2531 44.5047 24.0703 44.2812 24.0703Z" fill="#3F3D56"/>
</svg>
