<svg width="44" height="36" viewBox="0 0 44 36" fill="none" xmlns="http://www.w3.org/2000/svg">
<path d="M44 4.26183C42.3525 4.99664 40.605 5.47872 38.8156 5.69203C40.7004 4.55661 42.1108 2.76996 42.784 0.665052C41.0124 1.72392 39.0738 2.46955 37.0523 2.8696C36.2077 1.9626 35.187 1.2399 34.0536 0.746282C32.9203 0.252669 31.6983 -0.00133706 30.4634 5.29283e-06C25.4784 5.29283e-06 21.4363 4.06853 21.4363 9.0886C21.4363 9.80024 21.5163 10.4946 21.6706 11.1603C14.168 10.7811 7.51685 7.16249 3.06445 1.6632C2.26167 3.05028 1.83983 4.62742 1.84221 6.23281C1.84103 7.72917 2.20699 9.20265 2.90757 10.5223C3.60816 11.842 4.62167 12.967 5.85806 13.7974C4.4248 13.7516 3.02313 13.3619 1.76965 12.6606C1.7685 12.6986 1.7685 12.736 1.7685 12.7751C1.7685 17.1773 4.87981 20.8506 9.00879 21.6865C7.67927 22.0489 6.2853 22.102 4.93238 21.8419C6.08091 25.4519 9.41449 28.0804 13.3646 28.154C10.167 30.6805 6.21834 32.0509 2.15363 32.0448C1.42509 32.0448 0.70683 32.0022 0 31.9177C4.12746 34.5877 8.93116 36.0049 13.8372 36C30.4411 36 39.5207 22.1519 39.5207 10.1431C39.5207 9.74962 39.5116 9.35669 39.4945 8.96606C41.2627 7.68078 42.7885 6.08765 44 4.26183Z" fill="#3F3D56"/>
</svg>
